<svg xmlns="http://www.w3.org/2000/svg" version="1.1" xmlns:xlink="http://www.w3.org/1999/xlink" xmlns:svgjs="http://svgjs.dev/svgjs" width="1440" height="560" preserveAspectRatio="none" viewBox="0 0 1440 560"><g mask="url(&quot;#SvgjsMask1000&quot;)" fill="none"><rect width="1440" height="560" x="0" y="0" fill="#1e3266"></rect><path d="M1512 560L0 560 L0 377.06Q25.85 330.91, 72 356.77Q86.85 299.62, 144 314.46Q198 248.46, 264 302.46Q345.94 264.39, 384 346.33Q457.33 299.66, 504 373Q507.74 304.74, 576 308.48Q643.77 256.25, 696 324.03Q715.63 271.66, 768 291.3Q814.53 265.84, 840 312.37Q907.49 259.86, 960 327.35Q998.91 246.26, 1080 285.18Q1154.81 239.99, 1200 314.8Q1289.12 283.91, 1320 373.03Q1343.87 324.89, 1392 348.76Q1428.61 265.37, 1512 301.98z" fill="#182f5d"></path><path d="M1464 560L0 560 L0 385.79Q57.97 323.76, 120 381.73Q191.87 333.6, 240 405.46Q290.13 383.58, 312 433.71Q330.81 332.51, 432 351.32Q506.89 306.21, 552 381.1Q595.05 352.15, 624 395.21Q708.84 360.05, 744 444.89Q772.16 353.05, 864 381.21Q934.71 331.92, 984 402.63Q1060.1 358.73, 1104 434.82Q1132.53 391.35, 1176 419.88Q1188.59 360.47, 1248 373.06Q1293.71 346.77, 1320 392.49Q1340.69 341.18, 1392 361.87Q1435.1 332.97, 1464 376.06z" fill="#25467d"></path><path d="M1536 560L0 560 L0 438.16Q87.63 405.8, 120 493.43Q161.94 415.37, 240 457.3Q328.99 426.29, 360 515.28Q387.13 470.41, 432 497.54Q479.99 425.53, 552 473.52Q617.93 419.45, 672 485.38Q696.91 438.29, 744 463.21Q786.92 386.13, 864 429.05Q936.04 381.09, 984 453.13Q1028.13 425.26, 1056 469.39Q1070.85 412.24, 1128 427.08Q1175.71 402.79, 1200 450.5Q1248.13 426.63, 1272 474.75Q1324.55 455.3, 1344 507.85Q1345.84 437.69, 1416 439.52Q1481.45 384.97, 1536 450.41z" fill="#356cb1"></path><path d="M1464 560L0 560 L0 552.5Q54.1 486.6, 120 540.69Q139.58 488.27, 192 507.85Q273.7 469.55, 312 551.25Q358.2 477.45, 432 523.66Q475.35 495.01, 504 538.36Q547.21 509.57, 576 552.77Q621.17 525.94, 648 571.11Q689.56 492.67, 768 534.23Q853.4 499.63, 888 585.04Q906.64 483.68, 1008 502.33Q1050.51 472.84, 1080 515.35Q1151.48 514.83, 1152 586.31Q1205.75 520.06, 1272 573.81Q1277.43 507.24, 1344 512.67Q1410.55 459.22, 1464 525.78z" fill="white"></path></g><defs><mask id="SvgjsMask1000"><rect width="1440" height="560" fill="#ffffff"></rect></mask></defs></svg>