<svg width="417" height="204" viewBox="0 0 417 204" fill="none" xmlns="http://www.w3.org/2000/svg">
<path fill-rule="evenodd" clip-rule="evenodd" d="M406.95 204H416.952C416.926 202.765 416.889 201.532 416.842 200.302C416.777 198.632 416.693 196.968 416.589 195.308C416.485 193.64 416.361 191.977 416.218 190.319L406.463 190.696L406.849 200.689C406.892 201.79 406.925 202.894 406.95 204ZM0.0475995 204H10.05C10.0745 202.894 10.1082 201.79 10.1507 200.689L10.5371 190.696L0.781722 190.319C0.63853 191.977 0.514733 193.64 0.410562 195.308C0.306955 196.968 0.22276 198.633 0.158202 200.302C0.110652 201.532 0.0737544 202.765 0.0475995 204ZM18.7534 149.158L9.59869 145.78C10.1005 144.187 10.6209 142.602 11.1596 141.026C11.6995 139.447 12.2577 137.876 12.8341 136.315C18.5558 120.811 26.0675 106.174 35.1186 92.6542C36.0463 91.2685 36.9901 89.8945 37.9499 88.5326C38.911 87.1688 39.888 85.8171 40.8807 84.4776L48.9915 89.9077L43.4283 98.2174C34.8105 111.09 27.6607 125.022 22.2156 139.777L18.7534 149.158ZM55.9443 81.1014L48.7778 74.4736C49.8507 73.1964 50.9386 71.9322 52.0413 70.6813C53.1437 69.4308 54.2608 68.1936 55.3924 66.97C59.0994 62.9618 62.9618 59.0994 66.97 55.3924C68.1936 54.2608 69.4308 53.1437 70.6813 52.0413C71.9322 50.9386 73.1963 49.8507 74.4736 48.7778L81.1014 55.9443L73.7598 62.734C69.9426 66.2643 66.2643 69.9426 62.734 73.7598L55.9443 81.1014ZM116.301 32.3783L112.209 23.5183C113.687 22.7476 115.175 21.9941 116.673 21.258C118.168 20.5236 119.672 19.8065 121.187 19.1071C135.884 12.3204 151.504 7.19407 167.809 3.9686C169.441 3.64572 171.08 3.34189 172.725 3.05734C174.366 2.77373 176.012 2.50928 177.665 2.26424L179.559 11.8378L169.749 13.7785C154.232 16.8482 139.367 21.7267 125.379 28.1859L116.301 32.3783ZM190.696 10.5371L190.319 0.781724C191.977 0.638532 193.64 0.514736 195.308 0.410564C196.968 0.306957 198.632 0.222762 200.302 0.158203C203.022 0.0530578 205.755 0 208.5 0C211.245 0 213.978 0.053057 216.698 0.158202C218.367 0.22276 220.032 0.306955 221.692 0.410562C223.36 0.514733 225.023 0.63853 226.681 0.781722L226.304 10.5371L216.311 10.1507C213.721 10.0506 211.116 10 208.5 10C205.884 10 203.279 10.0506 200.689 10.1507L190.696 10.5371ZM267.842 18.7534L271.22 9.59869C272.813 10.1005 274.398 10.6209 275.974 11.1596C277.553 11.6995 279.124 12.2577 280.685 12.8341C296.189 18.5558 310.826 26.0675 324.346 35.1186C325.732 36.0463 327.105 36.9902 328.467 37.9499C329.831 38.911 331.183 39.888 332.522 40.8807L327.092 48.9915L318.783 43.4283C305.91 34.8105 291.978 27.6607 277.223 22.2156L267.842 18.7534ZM335.899 55.9443L342.526 48.7778C343.804 49.8507 345.068 50.9386 346.319 52.0413C347.569 53.1437 348.806 54.2608 350.03 55.3924C354.038 59.0994 357.901 62.9618 361.608 66.97C362.739 68.1936 363.856 69.4308 364.959 70.6813C366.061 71.9322 367.149 73.1964 368.222 74.4736L361.056 81.1014L354.266 73.7598C350.736 69.9426 347.057 66.2643 343.24 62.734L335.899 55.9443ZM384.622 116.301L393.482 112.209C394.252 113.687 395.006 115.175 395.742 116.673C396.476 118.168 397.193 119.672 397.893 121.187C404.68 135.884 409.806 151.504 413.031 167.809C413.354 169.441 413.658 171.08 413.943 172.725C414.226 174.366 414.491 176.012 414.736 177.665L405.162 179.559L403.222 169.749C400.152 154.232 395.273 139.367 388.814 125.379L384.622 116.301Z" fill="#1D5D9B"/>
</svg>
