<svg width="73" height="60" viewBox="0 0 73 60" fill="none" xmlns="http://www.w3.org/2000/svg">
<path d="M0.993652 26.6522H32.5757V0H0.993652V26.6522ZM8.88915 6.66305H24.6802V19.9892H8.88915V6.66305Z" fill="white"/>
<path d="M0.993652 59.9675H32.5757V33.3153H0.993652V59.9675ZM8.88915 39.9783H24.6802V53.3044H8.88915V39.9783Z" fill="white"/>
<path d="M40.4711 0V26.6522H72.0531V0H40.4711ZM64.1576 19.9892H48.3666V6.66305H64.1576V19.9892Z" fill="white"/>
<path d="M72.0532 53.3044H64.1577V59.9675H72.0532V53.3044Z" fill="white"/>
<path d="M48.3666 33.3153H40.4711V39.9783H48.3666V33.3153Z" fill="white"/>
<path d="M56.2622 39.9783H48.3667V46.6414H56.2622V39.9783Z" fill="white"/>
<path d="M48.3666 46.6414H40.4711V53.3044H48.3666V46.6414Z" fill="white"/>
<path d="M56.2622 53.3044H48.3667V59.9675H56.2622V53.3044Z" fill="white"/>
<path d="M64.1577 46.6414H56.2622V53.3044H64.1577V46.6414Z" fill="white"/>
<path d="M64.1577 33.3153H56.2622V39.9783H64.1577V33.3153Z" fill="white"/>
<path d="M72.0532 39.9783H64.1577V46.6414H72.0532V39.9783Z" fill="white"/>
</svg>
